# xmcd
#
# Track frame offsets: 
#        150
#        23875
#        40460
#        58817
#        70740
#        80730
#        99417
#        110033
#        126417
#        144259
#        160788
#        168001
#        188283
#        206142
#        219791
#        227939
#        236931
#        251543
#
# Disc length: 3496 seconds
#
# Revision: 0
# Processed by: cddbd v1.5.2PL0 Copyright (c) Steve Scherf et al.
# Submitted via: ExactAudioCopyFreeDBPlugin 1.0
#
DISCID=fc0da612
DTITLE=Thomas Riedel, Ive le Mau, Anke Strehlow - Bonjour, wir werden 
DTITLE=uns verstehn
DYEAR=2004
DGENRE=Country
TTITLE0=Der Winter ist vergangen
TTITLE1=Willst du mein Gärtner sein
TTITLE2=Hier wo die Quelle sprudelt
TTITLE3=Tante Michaela
TTITLE4=Liebe Schwester, tanz mit mir
TTITLE5=Die Vogelhochzeit
TTITLE6=War einmal ein kleiner Mann
TTITLE7=Bonjour, wir werden uns verstehn
TTITLE8=Es tanzt ein Bi Ba  Butzemann
TTITLE9=Abends, als der Momd schien
TTITLE10=In einem kleinem Apfel
TTITLE11=War einmal ein Schloß
TTITLE12=Zogen einst 5 wilde Schwäne
TTITLE13=Schöner Tambour
TTITLE14=Wer klopft an
TTITLE15=Ein Männlein steht im Walde
TTITLE16=Eine kleine Geige möcht ich haben
TTITLE17=Schlaf mein Engel
EXTD=
EXTT0=
EXTT1=
EXTT2=
EXTT3=
EXTT4=
EXTT5=
EXTT6=
EXTT7=
EXTT8=
EXTT9=
EXTT10=
EXTT11=
EXTT12=
EXTT13=
EXTT14=
EXTT15=
EXTT16=
EXTT17=
PLAYORDER=
